<?xml version="1.0" encoding="UTF-8"?>
<svg id="Layer_2" xmlns="http://www.w3.org/2000/svg" viewBox="0 0 104.2 100">
  <defs>
    <style>
      .cls-1 {
        fill: #ed1c24;
      }
    </style>
  </defs>
  <g id="Layer_1-2" data-name="Layer_1">
    <path class="cls-1" d="M45.27,45.5c-11.23-2.65.83-4.27-.82-19.43-.07-.04-.13-.08-.2-.12-2.55,2.54-4.8,5.56-8.02,7.27-4.11,2.06-8.58,3.2-13.01,4.35-1.2.31-1.69.02-2.26-1.12-.46-.91-.87-1.84-1.33-2.82-1.35.9-2.64,1.84-4,2.64-3.09,1.79-5.29,4.64-8.26,6.58-1.8,1.43-3.58-1.15-1.65-2.37.68-.52,1.44-.94,2.06-1.52.46-.42,2.84-3.04.88-2.68-1.91.71-3.75,1.61-5.64,2.39-1.71.84-2.98-1.97-1.16-2.67,1.85-.86,3.8-1.51,5.61-2.45.18-.11.29-.32.44-.49-1.68-1.33-4.04-.33-5.94-.06-2.12.54-2.78-2.71-.65-3.03,2.63-.53,5.33-.74,7.99-1.06.44-.06.85-.28,1.26-.56-1.11-.24-2.24-.75-1.76-2.08.27-.96.82-1.36,1.77-1.07,1.35.42,2.68.92,3.99,1.46.96.4,1.89.87,3.03.78-.26-1.64-1.7-4.43.98-4.49,3.97-.43,7.94-.68,11.93-.18.7.09,1.25-.2,1.79-.59,2.4-1.64,4.6-3.67,7.24-4.9,2.73-1.07,5.24-2.69,8.12-3.42,1.02-.26,1.77-.91,2.16-1.92-1.63-.79-2.5-1.95-2.52-3.76-.07-1.41-.08-2.84,0-4.25-.07-3.61,3.54-4.29,6.43-3.76,1.67.28,2.8,1.31,2.94,3.04-.08,2.9,1.26,7.52-2.44,8.62.37.97.99,1.66,1.91,1.92,2.72.75,5.14,2.17,7.73,3.21,4.22,1.26,6.72,6.23,11.44,5.6,3.5-.41,7,.05,10.48.5,2.16.25.72,3.02.61,4.52,2.47-.36,4.49-1.78,6.82-2.54,1.16-.3,1.85.16,2.03,1.36.09.63-.12,1.12-.71,1.39-.32.15-.65.25-1.02.53,3,1.01,6.25.47,9.31,1.23,2.25.29,1.62,3.62-.6,3.07-1.72-.35-3.45-.64-5.2-.27-.29.04-.54.3-.81.47.23.19.42.46.69.57,1.81.74,3.67,1.37,5.49,2.1.88.38,1.17,1.04.88,1.86-.32.88-.95,1.22-1.89.88-1.49-.54-2.95-1.17-4.42-1.74-.52-.17-2.56-1.08-2,.21.61.76,1.2,1.55,1.91,2.2,1.12,1.01,4.21,2.1,2.22,3.88-.57.46-1.17.33-1.69-.02-4.01-2.82-8.49-6.82-12.99-9.06-.41.86-.82,1.72-1.23,2.58-.71,1.45-1.1,1.73-2.66,1.29-12.14-3.62-11.96-2.59-20.89-11.75-1.51,11.95,6.7,16.77,3.14,18.3-1.29.62-2.67.95-4,1.48,2.1.09,3.99.65,4.97,2.66,5.46,10.11,10.14,20.62,14.88,31.08.82,1.73,1.9,3.33,2.92,4.95,2.17,3.99-2.42,4.79-5.08,5.38.69,1.2,1.31,2.33,1.99,3.44,1.22.72,2.49,1.54,2.44,3.18-.3,5.09-11.6,5.13-11.28-.97-.05-1.38.08-2.7.05-4.09-2.03.48-4.06.91-6.12.54-2.87-.44-1.54-3.81-1.6-5.79.02-5.47.41-10.98-.06-16.44-.85-4.1-3.48-7.88-6.72-10.49-2.15-1.58-4.07-2.03-6.21-.23-2.99,2.34-5.31,5.24-6.43,8.95-1.07,5.33-.31,10.88-.47,16.29,0,1.93.45,3.87.35,5.8-.64,3.5-5.62,1.8-8.01,1.27.07,1.68.14,3.29,0,4.95-.36,6.76-15.72,3.87-9.91-2.24.4-.3.84-.53,1.25-.81.71-1.04,1.2-2.18,1.88-3.36-1.56-.46-3.24-.55-4.56-1.55-2.87-2.34.86-5.22,1.79-7.59,5.34-10.79,9.45-22.24,15.87-32.46,1.06-1.63,2.77-2.21,4.58-2.55h0Z"/>
  </g>
</svg>